<?xml version="1.0" encoding="utf-8"?>
<!-- Generator: Adobe Illustrator 24.0.2, SVG Export Plug-In . SVG Version: 6.00 Build 0)  -->
<svg version="1.1" id="Layer_1" xmlns="http://www.w3.org/2000/svg" xmlns:xlink="http://www.w3.org/1999/xlink" x="0px" y="0px"
	 width="508.93px" height="509px" viewBox="0 0 508.93 509" style="enable-background:new 0 0 508.93 509;" xml:space="preserve">
<style type="text/css">
	.st0{fill:#BA020E;}
	.st1{fill:none;stroke:#000000;stroke-width:5;}
	.st2{fill:#FFFFFF;}
	.st3{enable-background:new    ;}
	.st4{fill:none;stroke:#BE1E2D;stroke-width:4;}
</style>
<g>
	<g>
		<rect x="2.46" y="2.5" width="504" height="504"/>
		<rect x="254.46" y="2.5" class="st0" width="252" height="393"/>
	</g>
	<g>
		<rect x="2.46" y="2.5" class="st1" width="504" height="504"/>
		<rect x="254.46" y="2.5" class="st1" width="252" height="393"/>
	</g>
</g>
<g>
	<g>
		<g>
			<g>
				<path d="M439.89,241.88h-94.95v51.28h20.03v75.32H233.16v-75.32h20.03V110.07h-20.03V34.75h206.73l53.29,53.58V188.7
					L439.89,241.88z M344.93,166.56h45.67l10.82-10.34v-35.41l-10.82-10.74h-45.67V166.56z"/>
				<path class="st0" d="M435.73,44.75l47.44,47.71v92.09l-47.42,47.33h-90.81h-10v10v51.28v10h10h10.03v55.32H243.16v-55.32h10.03
					h10v-10V110.07v-10h-10h-10.03V44.75H435.73 M334.93,176.56h10h45.67h4.01l2.9-2.77l10.82-10.34l3.09-2.95v-4.27v-35.41v-4.16
					l-2.95-2.93l-10.82-10.74l-2.92-2.9h-4.12h-45.67h-10v10v56.49L334.93,176.56 M439.89,34.75H233.16v75.32h20.03v183.09h-20.03
					v75.32h131.81v-75.32h-20.03v-51.28h94.95l53.29-53.19V88.32L439.89,34.75L439.89,34.75z M344.93,166.56v-56.49h45.67
					l10.82,10.74v35.41l-10.82,10.34L344.93,166.56L344.93,166.56z"/>
			</g>
			<g>
				<polygon class="st2" points="91.13,363.48 40.78,313.2 40.78,105.07 20.75,105.07 20.75,39.75 142.56,39.75 142.56,105.07 
					122.52,105.07 122.52,284.9 136.33,298.16 189.29,298.16 202.64,284.84 202.64,105.07 182.6,105.07 182.6,39.75 304.42,39.75 
					304.42,105.07 284.38,105.07 284.38,312.9 234.02,363.48 				"/>
				<path class="st0" d="M299.42,44.75v55.32h-10.03h-10v10v200.77l-47.44,47.65H93.2l-47.42-47.35V110.07v-10h-10H25.75V44.75
					h111.81v55.32h-10.03h-10v10v172.7v4.26l3.07,2.95l10.82,10.39l2.9,2.79h4.03h48.88h4.14l2.93-2.92l10.42-10.39l2.94-2.93v-4.15
					v-172.7v-10h-10H187.6V44.75H299.42 M309.42,34.75H177.6v75.32h20.03v172.7l-10.42,10.39h-48.88l-10.82-10.39v-172.7h20.03
					V34.75H15.75v75.32h20.03v205.21l53.29,53.2H236.1l53.29-53.52v-204.9h20.03V34.75L309.42,34.75z"/>
				<path class="st2" d="M304.42,39.75v65.32h-15.03h-5v5V312.9l-50.36,50.58H91.13L40.78,313.2V110.07v-5h-5H20.75V39.75h121.81
					v65.32h-15.03h-5v5v172.7v2.13l1.54,1.48l10.82,10.39l1.45,1.39h2.01h48.88h2.07l1.46-1.46l10.42-10.39l1.47-1.47v-2.07v-172.7
					v-5h-5H182.6V39.75H304.42 M309.42,34.75H177.6v75.32h20.03v172.7l-10.42,10.39h-48.88l-10.82-10.39v-172.7h20.03V34.75H15.75
					v75.32h20.03v205.21l53.29,53.2H236.1l53.29-53.52v-204.9h20.03V34.75L309.42,34.75z"/>
			</g>
		</g>
	</g>
	<g>
		<path class="st2" d="M437.81,39.75l50.36,50.64v96.23l-50.35,50.26h-92.88h-5v5v51.28v5h5h15.03v65.32H236.1h-2.94H91.13
			L40.78,313.2V110.07v-5h-5H20.75V39.75h121.81v65.32h-15.03h-5v5v172.7v2.13l1.54,1.48l10.82,10.39l1.45,1.39h2.01h48.88h2.07
			l1.46-1.46l10.42-10.39l1.47-1.47v-2.07v-172.7v-5h-5H182.6V39.75h50.55h76.26H437.81 M339.93,171.56h5h45.67h2.01l1.45-1.39
			l10.82-10.34l1.54-1.48v-2.14V120.8v-2.08l-1.48-1.47l-10.82-10.74l-1.46-1.45h-2.06h-45.67h-5v5v56.49V171.56 M439.89,34.75
			H309.42h-76.26H177.6v75.32h20.03v172.7l-10.42,10.39h-48.88l-10.82-10.39v-172.7h20.03V34.75H15.75v75.32h20.03v205.21
			l53.29,53.2h144.09h2.94h128.87v-75.32h-20.03v-51.28h94.95l53.29-53.19V88.32L439.89,34.75L439.89,34.75z M344.93,166.56v-56.49
			h45.67l10.82,10.74v35.41l-10.82,10.34L344.93,166.56L344.93,166.56z"/>
	</g>
</g>
<g>
	<g class="st3">
		<path class="st4" d="M42.64,409.37v81.17H17.72v-81.17H42.64z"/>
		<path class="st4" d="M147.97,409.37v81.17h-23.13V432.5l-15.02,58.04H94L78.39,432.5v58.04H59.72v-81.17h32.56l11.78,43.11
			l11.24-43.11H147.97z"/>
		<path class="st4" d="M190.32,461.04v29.5h-25.27v-81.17h34.67c8.64,0,15.21,0.99,19.71,2.97c4.5,1.98,8.07,5.02,10.7,9.1
			c2.64,4.08,3.96,8.66,3.96,13.74c0,7.73-2.7,13.98-8.09,18.73c-5.39,4.76-12.59,7.14-21.59,7.14H190.32z M189.96,443.62h8.33
			c7.33,0,11-2.7,11-8.09c0-5.07-3.39-7.61-10.17-7.61h-9.16V443.62z"/>
		<path class="st4" d="M318.54,490.54h-27.62l-11.86-31.04h-7.86v31.04h-24.92v-81.17h42.4c9.36,0,16.62,2.19,21.8,6.57
			c5.17,4.38,7.76,10.16,7.76,17.33c0,4.68-0.95,8.81-2.85,12.4c-1.9,3.59-5.75,6.75-11.54,9.49L318.54,490.54z M271.21,442.13
			h10.64c3.13,0,5.65-0.65,7.55-1.96c1.9-1.31,2.85-3.23,2.85-5.77c0-5.19-3.19-7.79-9.57-7.79h-11.48V442.13z"/>
		<path class="st4" d="M367.38,491.79c-11.42,0-20.72-3.79-27.92-11.36c-7.2-7.57-10.79-17.7-10.79-30.39
			c0-12.13,3.44-22.15,10.32-30.06c6.88-7.91,16.42-11.86,28.63-11.86c11.3,0,20.51,3.73,27.62,11.18
			c7.12,7.45,10.67,17.4,10.67,29.85c0,12.88-3.59,23.21-10.76,30.98C387.97,487.91,378.71,491.79,367.38,491.79z M367.26,473.35
			c4.2,0,7.23-1.83,9.07-5.5c1.84-3.67,2.77-10.38,2.77-20.13c0-14.11-3.79-21.17-11.36-21.17c-8.17,0-12.25,8.05-12.25,24.14
			C355.48,465.8,359.41,473.35,367.26,473.35z"/>
		<path class="st4" d="M487.05,409.37l-25.19,81.17h-25.39l-26.34-81.17h26.26l12.85,44.24c0.88,2.62,1.65,5.19,2.33,7.73l15-51.97
			H487.05z"/>
	</g>
	<g class="st3">
		<path class="st2" d="M42.64,409.37v81.17H17.72v-81.17H42.64z"/>
		<path class="st2" d="M147.97,409.37v81.17h-23.13V432.5l-15.02,58.04H94L78.39,432.5v58.04H59.72v-81.17h32.56l11.78,43.11
			l11.24-43.11H147.97z"/>
		<path class="st2" d="M190.32,461.04v29.5h-25.27v-81.17h34.67c8.64,0,15.21,0.99,19.71,2.97c4.5,1.98,8.07,5.02,10.7,9.1
			c2.64,4.08,3.96,8.66,3.96,13.74c0,7.73-2.7,13.98-8.09,18.73c-5.39,4.76-12.59,7.14-21.59,7.14H190.32z M189.96,443.62h8.33
			c7.33,0,11-2.7,11-8.09c0-5.07-3.39-7.61-10.17-7.61h-9.16V443.62z"/>
		<path class="st2" d="M318.54,490.54h-27.62l-11.86-31.04h-7.86v31.04h-24.92v-81.17h42.4c9.36,0,16.62,2.19,21.8,6.57
			c5.17,4.38,7.76,10.16,7.76,17.33c0,4.68-0.95,8.81-2.85,12.4c-1.9,3.59-5.75,6.75-11.54,9.49L318.54,490.54z M271.21,442.13
			h10.64c3.13,0,5.65-0.65,7.55-1.96c1.9-1.31,2.85-3.23,2.85-5.77c0-5.19-3.19-7.79-9.57-7.79h-11.48V442.13z"/>
		<path class="st2" d="M367.38,491.79c-11.42,0-20.72-3.79-27.92-11.36c-7.2-7.57-10.79-17.7-10.79-30.39
			c0-12.13,3.44-22.15,10.32-30.06c6.88-7.91,16.42-11.86,28.63-11.86c11.3,0,20.51,3.73,27.62,11.18
			c7.12,7.45,10.67,17.4,10.67,29.85c0,12.88-3.59,23.21-10.76,30.98C387.97,487.91,378.71,491.79,367.38,491.79z M367.26,473.35
			c4.2,0,7.23-1.83,9.07-5.5c1.84-3.67,2.77-10.38,2.77-20.13c0-14.11-3.79-21.17-11.36-21.17c-8.17,0-12.25,8.05-12.25,24.14
			C355.48,465.8,359.41,473.35,367.26,473.35z"/>
		<path class="st2" d="M487.05,409.37l-25.19,81.17h-25.39l-26.34-81.17h26.26l12.85,44.24c0.88,2.62,1.65,5.19,2.33,7.73l15-51.97
			H487.05z"/>
	</g>
</g>
</svg>
